<?xml version="1.0" encoding="UTF-8"?>
<svg width="192px" height="66px" viewBox="0 0 192 66" version="1.1" xmlns="http://www.w3.org/2000/svg" xmlns:xlink="http://www.w3.org/1999/xlink">
    <!-- Generator: Sketch 41.2 (35397) - http://www.bohemiancoding.com/sketch -->
    <title>MS Logo</title>
    <desc>Created with Sketch.</desc>
    <defs>
        <polygon id="path-1" points="31.5226 0.712 0.1916 0.712 0.1916 22.7857 31.5226 22.7857 31.5226 0.712"></polygon>
        <polygon id="path-3" points="18 21.5744 18 0.1034 0.7201 0.1034 0.7201 21.5744 18 21.5744"></polygon>
    </defs>
    <g id="Homepage-Carousel-1024px" stroke="none" stroke-width="1" fill="none" fill-rule="evenodd">
        <g id="Desktop" transform="translate(-42.000000, -55.000000)">
            <g id="Header">
                <g id="MS-Logo" transform="translate(42.000000, 54.000000)">
                    <g id="Group-27" transform="translate(0.000000, 0.288200)">
                        <path d="M0.4306,21.6694 C1.0336,21.6094 1.5006,21.5134 1.8326,21.3834 C2.1646,21.2524 2.4106,21.0714 2.5716,20.8404 C2.7326,20.6094 2.8436,20.3174 2.9036,19.9654 C2.9636,19.6144 3.0036,19.1264 3.0236,18.5034 L3.3256,7.2254 L3.3556,6.2904 C3.3956,5.4264 3.4156,4.7934 3.4156,4.3904 C3.4156,3.4264 3.2806,2.8074 3.0086,2.5364 C2.7376,2.2654 2.0986,2.0894 1.0936,2.0084 L1.0936,1.1034 C1.2546,1.1034 1.5956,1.1144 2.1186,1.1334 C3.2846,1.1744 4.0186,1.1944 4.3206,1.1944 C5.0036,1.1944 5.9486,1.1644 7.1546,1.1034 L14.2416,17.6294 L21.5696,1.1034 C22.5946,1.1644 23.5896,1.1944 24.5546,1.1944 C25.3586,1.1944 26.3636,1.1644 27.5696,1.1034 L27.5696,2.0084 C26.7856,2.0084 26.2226,2.1744 25.8816,2.5064 C25.5396,2.8374 25.3686,3.4554 25.3686,4.3604 C25.3686,5.0234 25.3736,5.7684 25.3836,6.5924 C25.3936,7.4164 25.4086,8.2304 25.4286,9.0344 L25.6096,19.0154 C25.6296,20.0614 25.8106,20.7554 26.1526,21.0964 C26.4946,21.4384 27.1476,21.6294 28.1126,21.6694 L28.1126,22.5744 C27.7706,22.5744 27.2486,22.5634 26.5446,22.5444 C25.2576,22.5034 24.3236,22.4834 23.7406,22.4834 C23.1776,22.4834 22.2526,22.5034 20.9656,22.5444 C20.2426,22.5634 19.6996,22.5744 19.3376,22.5744 L19.3376,21.6694 C19.9206,21.6294 20.3626,21.5694 20.6646,21.4884 C20.9656,21.4084 21.2076,21.2724 21.3886,21.0814 C21.5696,20.8904 21.6946,20.6144 21.7656,20.2524 C21.8356,19.8904 21.8706,19.3884 21.8706,18.7444 C21.8706,18.0204 21.8506,16.8744 21.8106,15.3064 L21.6296,3.8184 L21.5696,3.8184 L13.3976,22.7854 L12.5226,22.7854 L4.6216,4.9034 L4.5616,4.9034 L4.5616,19.4074 C4.5616,20.1914 4.7376,20.7554 5.0896,21.0964 C5.4416,21.4384 6.0886,21.6294 7.0346,21.6694 L7.0346,22.5744 L5.9786,22.5444 C5.0146,22.5034 4.2606,22.4834 3.7166,22.4834 C3.1746,22.4834 2.4206,22.5034 1.4556,22.5444 L0.4306,22.5744 L0.4306,21.6694 Z" id="Fill-1" fill="#1F3975"></path>
                        <path d="M33.6053,21.6694 C34.1873,21.6294 34.6503,21.5634 34.9923,21.4734 C35.3343,21.3834 35.6503,21.1924 35.9423,20.9004 C36.2333,20.6094 36.5303,20.1764 36.8323,19.6044 C37.1333,19.0304 37.4953,18.2324 37.9173,17.2074 L44.5513,1.1944 L45.0643,1.1944 L53.2363,19.4374 C53.6173,20.3024 54.0293,20.8904 54.4723,21.2024 C54.9143,21.5134 55.5283,21.6694 56.3123,21.6694 L56.3123,22.5744 C55.5083,22.5544 54.6833,22.5334 53.8393,22.5134 C52.8343,22.4934 52.1203,22.4834 51.6983,22.4834 C51.2153,22.4834 50.5123,22.4934 49.5873,22.5134 C48.5623,22.5544 47.7273,22.5744 47.0843,22.5744 L47.0843,21.6694 C47.9083,21.6694 48.4763,21.5894 48.7883,21.4284 C49.1003,21.2674 49.2553,20.9754 49.2553,20.5534 C49.2553,20.3724 49.1953,20.1014 49.0743,19.7394 C48.9543,19.3774 48.7333,18.8254 48.4113,18.0814 L47.2053,15.2464 L40.3003,15.2464 L39.4253,17.6894 C39.0833,18.6544 38.8623,19.3224 38.7623,19.6944 C38.6613,20.0664 38.6113,20.3424 38.6113,20.5234 C38.6113,20.9454 38.7623,21.2374 39.0633,21.3984 C39.3643,21.5594 39.9573,21.6494 40.8423,21.6694 L40.8423,22.5744 C39.7763,22.5334 39.0133,22.5084 38.5503,22.4984 C38.0883,22.4884 37.6463,22.4834 37.2243,22.4834 C36.8023,22.4834 36.3643,22.4884 35.9123,22.4984 C35.4593,22.5084 34.6903,22.5334 33.6053,22.5744 L33.6053,21.6694 Z M46.7223,14.1004 L43.4653,6.3514 L40.6923,14.1004 L46.7223,14.1004 Z" id="Fill-3" fill="#1F3975"></path>
                        <path d="M60.8462,1.1037 L61.4792,1.1037 C62.6052,1.1437 63.5202,1.1687 64.2232,1.1787 C64.9272,1.1897 65.5202,1.1937 66.0022,1.1937 C66.4852,1.1937 67.9922,1.1637 70.5262,1.1037 L71.1592,1.1037 L71.1592,2.0087 C70.2742,2.0087 69.6612,2.0637 69.3192,2.1747 C68.9782,2.2847 68.8072,2.5507 68.8072,2.9737 C68.8072,3.0937 68.8522,3.2497 68.9422,3.4407 C69.0332,3.6317 69.1482,3.8177 69.2892,3.9987 L73.4202,9.7277 L77.6422,4.6017 C78.0242,4.1397 78.2802,3.7777 78.4112,3.5157 C78.5422,3.2547 78.6072,3.0037 78.6072,2.7617 C78.6072,2.5207 78.5212,2.3357 78.3512,2.2047 C78.1802,2.0737 77.8632,2.0087 77.4012,2.0087 L76.7072,2.0087 L76.7072,1.1037 L77.5212,1.1337 C78.1252,1.1547 78.6522,1.1687 79.1052,1.1787 C79.5572,1.1897 79.9342,1.1937 80.2362,1.1937 C80.5572,1.1937 81.5222,1.1737 83.1302,1.1337 C83.4522,1.1137 83.6732,1.1037 83.7942,1.1037 L83.7942,2.0087 C83.3312,2.0087 82.9442,2.0337 82.6332,2.0837 C82.3212,2.1337 82.0102,2.2447 81.6982,2.4157 C81.3862,2.5867 81.0502,2.8427 80.6882,3.1837 C80.3262,3.5267 79.8842,4.0087 79.3612,4.6317 L74.0842,10.7837 L80.1152,19.1967 C80.8592,20.2427 81.5172,20.9157 82.0902,21.2177 C82.6632,21.5187 83.3422,21.6697 84.1262,21.6697 L84.1262,22.5747 C82.1152,22.5137 80.4572,22.4837 79.1502,22.4837 C77.8832,22.4837 76.2352,22.5137 74.2042,22.5747 L74.2042,21.6697 C75.0292,21.6697 75.5822,21.6147 75.8632,21.5037 C76.1452,21.3937 76.2852,21.1677 76.2852,20.8257 C76.2852,20.6037 76.2352,20.3787 76.1352,20.1467 C76.0332,19.9157 75.8232,19.5887 75.5012,19.1667 L71.6422,13.7087 L66.9072,19.4977 C66.5252,19.9607 66.3342,20.3627 66.3342,20.7047 C66.3342,21.0867 66.4452,21.3427 66.6662,21.4737 C66.8872,21.6047 67.2892,21.6697 67.8722,21.6697 L67.8722,22.5747 C66.6662,22.5137 65.4492,22.4837 64.2232,22.4837 C62.9972,22.4837 61.7912,22.5137 60.6052,22.5747 L60.6052,21.6697 C61.4292,21.6697 62.2482,21.4687 63.0632,21.0667 C63.8762,20.6647 64.5452,20.1417 65.0682,19.4977 L70.9482,12.6527 L66.5152,6.4417 C65.7712,5.3757 65.1932,4.5817 64.7812,4.0587 C64.3692,3.5367 63.9822,3.1237 63.6202,2.8227 C63.2582,2.5207 62.8662,2.3097 62.4442,2.1887 C62.0222,2.0687 61.4892,2.0087 60.8462,2.0087 L60.8462,1.1037 Z" id="Fill-5" fill="#1F3975"></path>
                        <g id="Group-9" transform="translate(89.000000, 0.000000)">
                            <mask id="mask-2" fill="white">
                                <use xlink:href="#path-1"></use>
                            </mask>
                            <g id="Clip-8"></g>
                            <path d="M0.1916,1.1037 C1.2576,1.1437 2.1116,1.1687 2.7546,1.1787 C3.3976,1.1897 4.0216,1.1937 4.6246,1.1937 C5.2276,1.1937 5.8556,1.1897 6.5096,1.1787 C7.1626,1.1687 8.0116,1.1437 9.0576,1.1037 L9.0576,2.0087 L8.2726,2.0087 C7.2076,2.0087 6.6756,2.4307 6.6756,3.2747 C6.6756,3.4357 6.7056,3.6317 6.7656,3.8637 C6.8256,4.0937 6.9356,4.4407 7.0976,4.9037 L11.4396,17.1767 L11.4996,17.1767 L16.5966,0.7117 L17.1386,0.7117 L23.0186,17.2367 L23.0796,17.2367 L26.6986,5.0847 C26.9386,4.2197 27.0606,3.6477 27.0606,3.3647 C27.0606,2.8827 26.8736,2.5417 26.5026,2.3407 C26.1296,2.1397 25.5616,2.0287 24.7986,2.0087 L24.7986,1.1037 C25.0186,1.1037 25.3006,1.1137 25.6426,1.1337 C26.8286,1.1737 27.6726,1.1937 28.1756,1.1937 C28.7186,1.1937 29.5726,1.1737 30.7396,1.1337 C31.0406,1.1137 31.3016,1.1037 31.5226,1.1037 L31.5226,2.0087 C30.5376,2.0087 29.8446,2.1887 29.4416,2.5507 C29.0396,2.9137 28.6676,3.6067 28.3266,4.6317 L22.2046,22.7857 L21.3306,22.7857 L15.7526,7.4367 L15.6916,7.4367 L10.6256,22.7857 L9.7206,22.7857 L3.1166,4.7827 C2.8946,4.1397 2.6946,3.6477 2.5136,3.3047 C2.3326,2.9637 2.1416,2.7017 1.9406,2.5207 C1.7396,2.3407 1.5076,2.2147 1.2476,2.1437 C0.9856,2.0737 0.6336,2.0287 0.1916,2.0087 L0.1916,1.1037 Z" id="Fill-7" fill="#1F3975" mask="url(#mask-2)"></path>
                        </g>
                        <path d="M125.4448,21.6694 C126.4098,21.6494 127.0678,21.4534 127.4198,21.0814 C127.7718,20.7104 127.9488,20.0914 127.9488,19.2274 L127.9488,4.4514 C127.9488,3.5864 127.7718,2.9684 127.4198,2.5964 C127.0678,2.2244 126.4098,2.0284 125.4448,2.0084 L125.4448,1.1034 C125.7658,1.1034 125.9878,1.1144 126.1088,1.1334 C127.5758,1.1744 128.7018,1.1944 129.4868,1.1944 C131.7778,1.1944 134.8528,1.1744 138.7128,1.1334 C139.0758,1.1144 139.7078,1.1034 140.6138,1.1034 L140.7338,6.1694 L139.7678,6.1694 C139.5268,4.7024 139.0138,3.6824 138.2298,3.1094 C137.4468,2.5364 136.1598,2.2504 134.3708,2.2504 L131.7478,2.2504 L131.7478,10.9644 L134.0688,10.9644 C135.3548,10.9644 136.2058,10.7484 136.6178,10.3164 C137.0288,9.8844 137.2958,9.1354 137.4168,8.0694 L138.4418,8.0694 L138.4418,8.2504 C138.4018,9.7384 138.3808,10.7634 138.3808,11.3264 C138.3808,12.2714 138.4018,13.4774 138.4418,14.9454 L138.4418,15.0964 L137.4168,15.0964 C137.4168,13.9094 137.1848,13.1154 136.7228,12.7134 C136.2608,12.3114 135.3658,12.1104 134.0388,12.1104 L131.7478,12.1104 L131.7478,19.2874 C131.7478,20.0314 131.9778,20.5744 132.4408,20.9154 C132.9028,21.2574 133.8078,21.4284 135.1548,21.4284 C135.9988,21.4284 136.7328,21.3734 137.3568,21.2624 C137.9788,21.1524 138.5418,20.9454 139.0458,20.6444 C139.5478,20.3424 139.9698,19.9004 140.3108,19.3174 C140.6528,18.7344 140.9148,17.9814 141.0948,17.0564 L142.1208,17.0564 C141.9998,18.0204 141.8948,19.0064 141.8038,20.0114 C141.7138,21.0164 141.6688,21.8704 141.6688,22.5744 C141.3468,22.5744 140.6728,22.5634 139.6478,22.5444 C135.8288,22.5034 132.6718,22.4834 130.1798,22.4834 C129.1738,22.4834 128.2488,22.4934 127.4058,22.5134 C126.5608,22.5334 125.9068,22.5544 125.4448,22.5744 L125.4448,21.6694 Z" id="Fill-10" fill="#1F3975"></path>
                        <path d="M149.928,21.6694 C150.893,21.6494 151.551,21.4534 151.902,21.0814 C152.254,20.7104 152.431,20.0914 152.431,19.2274 L152.431,4.4514 C152.431,3.5864 152.254,2.9684 151.902,2.5964 C151.551,2.2244 150.893,2.0284 149.928,2.0084 L149.928,1.1034 L150.923,1.1334 C151.566,1.1544 152.179,1.1694 152.762,1.1794 C153.345,1.1894 153.868,1.1944 154.33,1.1944 C154.792,1.1944 155.939,1.1744 157.768,1.1334 L158.733,1.1034 L158.733,2.0084 C157.788,2.0284 157.135,2.2244 156.773,2.5964 C156.411,2.9684 156.23,3.5864 156.23,4.4514 L156.23,19.2274 C156.23,20.0114 156.476,20.5534 156.969,20.8554 C157.461,21.1574 158.341,21.3084 159.607,21.3084 C160.694,21.3084 161.597,21.2574 162.322,21.1574 C163.045,21.0564 163.668,20.8604 164.191,20.5684 C164.714,20.2774 165.142,19.8504 165.472,19.2874 C165.805,18.7254 166.04,17.9814 166.181,17.0564 L167.207,17.0564 L166.725,22.5744 L166.241,22.5744 C163.607,22.5544 161.241,22.5334 159.14,22.5134 C157.039,22.4934 154.712,22.4834 152.159,22.4834 C151.215,22.4834 150.47,22.5134 149.928,22.5744 L149.928,21.6694 Z" id="Fill-12" fill="#1F3975"></path>
                        <g id="Group-16" transform="translate(174.000000, 1.000000)">
                            <mask id="mask-4" fill="white">
                                <use xlink:href="#path-3"></use>
                            </mask>
                            <g id="Clip-15"></g>
                            <path d="M0.7201,20.6694 C1.6861,20.6494 2.3441,20.4534 2.6961,20.0814 C3.0471,19.7104 3.2241,19.0914 3.2241,18.2274 L3.2241,3.4514 C3.2241,2.5864 3.0471,1.9684 2.6961,1.5964 C2.3441,1.2244 1.6861,1.0284 0.7201,1.0084 L0.7201,0.1034 L1.7151,0.1334 C2.3591,0.1544 2.9721,0.1694 3.5551,0.1794 C4.1371,0.1894 4.6611,0.1944 5.1231,0.1944 C5.5851,0.1944 6.7321,0.1744 8.5611,0.1334 L9.5261,0.1034 L9.5261,1.0084 C8.5811,1.0284 7.9281,1.2244 7.5651,1.5964 C7.2031,1.9684 7.0221,2.5864 7.0221,3.4514 L7.0221,18.2274 C7.0221,19.0114 7.2691,19.5534 7.7621,19.8554 C8.2541,20.1574 9.1341,20.3084 10.4001,20.3084 C11.4871,20.3084 12.3901,20.2574 13.1151,20.1574 C13.8391,20.0564 14.4611,19.8604 14.9841,19.5684 C15.5071,19.2774 15.9341,18.8504 16.2661,18.2874 C16.5971,17.7254 16.8331,16.9814 16.9751,16.0564 L18.0001,16.0564 L17.5171,21.5744 L17.0341,21.5744 C14.4001,21.5544 12.0341,21.5334 9.9331,21.5134 C7.8321,21.4934 5.5051,21.4834 2.9521,21.4834 C2.0071,21.4834 1.2631,21.5134 0.7201,21.5744 L0.7201,20.6694 Z" id="Fill-14" fill="#1F3975" mask="url(#mask-4)"></path>
                        </g>
                        <path d="M0,46.4955 L1.176,46.4955 C1.357,47.3205 1.653,48.0585 2.065,48.7115 C2.477,49.3655 2.96,49.8985 3.513,50.3105 C4.066,50.7225 4.638,51.0345 5.232,51.2445 C5.824,51.4565 6.393,51.5615 6.935,51.5615 C8.322,51.5615 9.403,51.1995 10.177,50.4765 C10.951,49.7525 11.338,48.9285 11.338,48.0035 C11.338,47.4815 11.212,46.9985 10.961,46.5555 C10.71,46.1135 10.363,45.7165 9.921,45.3645 C9.478,45.0135 9.006,44.7015 8.503,44.4305 C8.001,44.1585 7.337,43.8115 6.513,43.3895 C5.468,42.8675 4.638,42.4355 4.025,42.0925 C3.412,41.7515 2.814,41.3245 2.231,40.8115 C1.648,40.2985 1.186,39.7065 0.844,39.0315 C0.502,38.3585 0.331,37.5895 0.331,36.7255 C0.331,36.2025 0.427,35.6045 0.618,34.9305 C0.809,34.2575 1.17,33.5795 1.704,32.8955 C2.236,32.2125 3.02,31.6345 4.056,31.1615 C5.091,30.6895 6.382,30.4535 7.931,30.4535 C8.875,30.4535 9.846,30.5135 10.841,30.6345 C11.836,30.7545 12.725,30.9555 13.509,31.2365 L13.69,36.5745 L12.574,36.5745 C12.414,35.0265 11.851,33.8105 10.886,32.9255 C9.921,32.0415 8.644,31.5985 7.056,31.5985 C5.89,31.5985 4.95,31.9155 4.237,32.5485 C3.523,33.1825 3.166,33.9315 3.166,34.7955 C3.166,35.6805 3.548,36.4285 4.312,37.0415 C5.076,37.6555 6.262,38.3835 7.871,39.2285 C8.936,39.7715 9.8,40.2385 10.464,40.6305 C11.127,41.0225 11.76,41.4955 12.363,42.0475 C12.967,42.6005 13.449,43.2285 13.811,43.9325 C14.173,44.6365 14.353,45.4295 14.353,46.3145 C14.353,48.1845 13.7,49.7175 12.394,50.9135 C11.086,52.1095 9.227,52.7075 6.815,52.7075 C5.85,52.7075 4.779,52.6175 3.603,52.4355 C2.427,52.2555 1.306,52.0145 0.241,51.7125 L0,46.4955 Z" id="Fill-17" fill="#1F3975"></path>
                        <path d="M25.266,51.4112 C26.231,51.3912 26.89,51.1952 27.241,50.8232 C27.593,50.4512 27.769,49.8332 27.769,48.9682 L27.769,32.3522 L25.116,32.3522 C23.768,32.3522 22.794,32.6242 22.191,33.1672 C21.808,33.4892 21.512,33.9462 21.301,34.5392 C21.09,35.1322 20.964,35.8912 20.924,36.8162 L19.808,36.8162 L19.989,30.8452 L29.669,30.9352 C31.156,30.9352 33.086,30.9152 35.459,30.8752 C37.167,30.8552 38.464,30.8452 39.348,30.8452 L39.529,36.8162 L38.414,36.8162 C38.373,35.8912 38.248,35.1322 38.037,34.5392 C37.826,33.9462 37.529,33.4892 37.147,33.1672 C36.544,32.6242 35.569,32.3522 34.222,32.3522 L31.569,32.3522 L31.569,48.9682 C31.569,49.8332 31.749,50.4512 32.111,50.8232 C32.473,51.1952 33.126,51.3912 34.072,51.4112 L34.072,52.3162 L33.107,52.2852 C32.463,52.2652 31.845,52.2502 31.252,52.2402 C30.659,52.2302 30.131,52.2252 29.669,52.2252 C29.206,52.2252 28.071,52.2452 26.261,52.2852 L25.266,52.3162 L25.266,51.4112 Z" id="Fill-19" fill="#1F3975"></path>
                        <path d="M41.9238,51.4112 C42.5068,51.3712 42.9688,51.3052 43.3108,51.2152 C43.6528,51.1242 43.9698,50.9332 44.2608,50.6422 C44.5518,50.3502 44.8488,49.9182 45.1508,49.3452 C45.4518,48.7722 45.8138,47.9732 46.2358,46.9482 L52.8698,30.9352 L53.3828,30.9352 L61.5548,49.1792 C61.9358,50.0442 62.3488,50.6322 62.7908,50.9432 C63.2328,51.2552 63.8458,51.4112 64.6308,51.4112 L64.6308,52.3162 C63.8268,52.2952 63.0028,52.2752 62.1578,52.2552 C61.1528,52.2352 60.4388,52.2252 60.0168,52.2252 C59.5348,52.2252 58.8308,52.2352 57.9058,52.2552 C56.8808,52.2952 56.0458,52.3162 55.4028,52.3162 L55.4028,51.4112 C56.2268,51.4112 56.7948,51.3312 57.1068,51.1692 C57.4188,51.0092 57.5738,50.7172 57.5738,50.2952 C57.5738,50.1142 57.5138,49.8422 57.3938,49.4812 C57.2728,49.1192 57.0518,48.5662 56.7298,47.8222 L55.5238,44.9882 L48.6178,44.9882 L47.7438,47.4302 C47.4018,48.3952 47.1808,49.0632 47.0808,49.4362 C46.9798,49.8082 46.9298,50.0842 46.9298,50.2642 C46.9298,50.6872 47.0808,50.9782 47.3818,51.1392 C47.6838,51.3012 48.2768,51.3912 49.1608,51.4112 L49.1608,52.3162 C48.0958,52.2752 47.3318,52.2502 46.8688,52.2402 C46.4068,52.2302 45.9648,52.2252 45.5428,52.2252 C45.1198,52.2252 44.6838,52.2302 44.2308,52.2402 C43.7788,52.2502 43.0088,52.2752 41.9238,52.3162 L41.9238,51.4112 Z M55.0418,43.8422 L51.7848,36.0922 L49.0108,43.8422 L55.0418,43.8422 Z" id="Fill-21" fill="#1F3975"></path>
                        <path d="M69.8122,51.4112 C70.4152,51.3502 70.8832,51.2552 71.2142,51.1242 C71.5462,50.9932 71.7922,50.8132 71.9532,50.5822 C72.1142,50.3502 72.2242,50.0592 72.2852,49.7072 C72.3452,49.3552 72.3852,48.8682 72.4052,48.2442 L72.7072,36.9662 L72.7372,36.0312 C72.7772,35.1672 72.7972,34.5342 72.7972,34.1322 C72.7972,33.1672 72.6622,32.5492 72.3902,32.2772 C72.1192,32.0062 71.4802,31.8302 70.4752,31.7502 L70.4752,30.8452 C70.6362,30.8452 70.9782,30.8552 71.5012,30.8752 C72.6662,30.9152 73.4002,30.9352 73.7022,30.9352 C74.3852,30.9352 75.3302,30.9062 76.5372,30.8452 L83.6232,47.3702 L90.9512,30.8452 C91.9772,30.9062 92.9732,30.9352 93.9402,30.9352 C94.7452,30.9352 95.7522,30.9062 96.9582,30.8452 L96.9582,31.7502 C96.1742,31.7502 95.6112,31.9162 95.2692,32.2472 C94.9272,32.5792 94.7552,33.1972 94.7552,34.1022 C94.7552,34.7652 94.7602,35.5092 94.7702,36.3332 C94.7812,37.1582 94.7962,37.9722 94.8162,38.7762 L94.9972,48.7572 C95.0162,49.8032 95.1982,50.4962 95.5402,50.8382 C95.8822,51.1802 96.5362,51.3712 97.5002,51.4112 L97.5002,52.3162 C97.1582,52.3162 96.6362,52.3052 95.9332,52.2852 C94.6442,52.2452 93.7082,52.2252 93.1242,52.2252 C92.5602,52.2252 91.6342,52.2452 90.3482,52.2852 C89.6242,52.3052 89.0812,52.3162 88.7192,52.3162 L88.7192,51.4112 C89.3022,51.3712 89.7442,51.3102 90.0462,51.2302 C90.3482,51.1502 90.5892,51.0142 90.7702,50.8232 C90.9512,50.6322 91.0762,50.3552 91.1472,49.9942 C91.2162,49.6312 91.2522,49.1292 91.2522,48.4862 C91.2522,47.7622 91.2322,46.6162 91.1922,45.0482 L91.0112,33.5592 L90.9512,33.5592 L82.7792,52.5262 L81.9042,52.5262 L74.0042,34.6452 L73.9432,34.6452 L73.9432,49.1492 C73.9432,49.9332 74.1192,50.4962 74.4712,50.8382 C74.8232,51.1802 75.4712,51.3712 76.4162,51.4112 L76.4162,52.3162 L75.3612,52.2852 C74.3962,52.2452 73.6422,52.2252 73.0992,52.2252 C72.5562,52.2252 71.8022,52.2452 70.8372,52.2852 L69.8122,52.3162 L69.8122,51.4112 Z" id="Fill-23" fill="#1F3975"></path>
                        <path d="M103.9325,51.4112 C104.8965,51.3912 105.5555,51.1952 105.9075,50.8232 C106.2595,50.4512 106.4345,49.8332 106.4345,48.9682 L106.4345,34.1922 C106.4345,33.3282 106.2595,32.7102 105.9075,32.3382 C105.5555,31.9662 104.8965,31.7702 103.9325,31.7502 L103.9325,30.8452 C104.3945,30.8652 104.9825,30.8862 105.6965,30.9062 C106.4095,30.9262 107.0785,30.9352 107.7015,30.9352 C108.3045,30.9352 109.1085,30.9152 110.1145,30.8752 C111.0985,30.8552 111.8935,30.8452 112.4965,30.8452 C113.9435,30.8452 115.1805,30.9962 116.2055,31.2972 C117.2305,31.5992 118.0595,32.0212 118.6925,32.5642 C119.3265,33.1062 119.7845,33.7452 120.0655,34.4782 C120.3465,35.2132 120.4875,36.0312 120.4875,36.9372 C120.4875,38.7462 119.8545,40.1322 118.5875,41.0982 C117.3215,42.0622 115.3415,42.5452 112.6475,42.5452 C112.2045,42.5452 111.7475,42.5362 111.2755,42.5152 C110.8025,42.4952 110.4555,42.4752 110.2345,42.4552 L110.2345,48.9682 C110.2345,49.8332 110.4155,50.4512 110.7775,50.8232 C111.1395,51.1952 111.7925,51.3912 112.7385,51.4112 L112.7385,52.3162 L111.7725,52.2852 C111.1295,52.2652 110.5105,52.2502 109.9185,52.2402 C109.3255,52.2302 108.7965,52.2252 108.3345,52.2252 C107.8715,52.2252 106.7365,52.2452 104.9275,52.2852 L103.9325,52.3162 L103.9325,51.4112 Z M110.2345,41.1882 C110.5365,41.2482 110.8725,41.2992 111.2455,41.3392 C111.6165,41.3792 111.9435,41.3992 112.2255,41.3992 C113.6325,41.3992 114.7075,41.0632 115.4515,40.3892 C116.1945,39.7162 116.5675,38.6662 116.5675,37.2382 C116.5675,36.6152 116.4815,35.9922 116.3115,35.3682 C116.1405,34.7452 115.8635,34.1572 115.4815,33.6042 C115.0995,33.0522 114.5765,32.6042 113.9135,32.2622 C113.2505,31.9212 112.4555,31.7502 111.5315,31.7502 C111.0495,31.7502 110.6165,31.7902 110.2345,31.8702 L110.2345,41.1882 Z" id="Fill-25" fill="#1F3975"></path>
                    </g>
                    <polygon id="Fill-28" fill="#D81823" points="128.191 66.2882 134.315 66.2882 134.315 30.2802 128.191 30.2802"></polygon>
                </g>
            </g>
        </g>
    </g>
</svg>