<?xml version="1.0" encoding="UTF-8"?>
<svg width="124px" height="124px" viewBox="0 0 124 124" version="1.1" xmlns="http://www.w3.org/2000/svg" xmlns:xlink="http://www.w3.org/1999/xlink">
    <title>sparkplug</title>
    <g id="Platia" stroke="none" stroke-width="1" fill="none" fill-rule="evenodd">
        <g id="sparkplug">
            <circle id="Oval" fill="#171717" cx="62" cy="62" r="62"></circle>
            <path d="M68.4450526,21.0087434 C66.4490941,21.0790926 64.5187465,22.1950425 63.4588794,23.8912796 L40.9571751,58.7379394 C39.768453,60.5871819 39.6791069,63.091308 40.7330028,65.0208946 C41.7868988,66.9504792 43.9399621,68.2248257 46.1351241,68.2182806 L67.5500984,68.2182806 L51.1852225,93.5845992 C49.4443741,96.3013247 50.327433,100.360391 53.0387574,102.104562 C55.7500799,103.848734 59.800763,102.963502 61.5411206,100.246461 L84.0428249,65.3998008 C85.231547,63.5505583 85.3208931,61.0464322 84.2669972,59.1168455 C83.2131012,57.187261 81.0600379,55.9129145 78.8648759,55.9194595 L57.4499016,55.9194595 L73.8147775,30.553141 C75.0577164,28.6756112 75.1509103,26.0958781 74.0467026,24.1332076 C72.9424928,22.1705371 70.6915737,20.9150284 68.4450526,21.0087434 Z" id="Path" fill="#FFFFFF"></path>
        </g>
    </g>
</svg>